<svg xmlns="http://www.w3.org/2000/svg" width="36" height="36" fill="none"><g clip-path="url(#a)"><mask id="b" width="36" height="36" x="0" y="0" maskUnits="userSpaceOnUse" style="mask-type:luminance"><path fill="#fff" d="M0 0h36v36H0V0z"/></mask><g mask="url(#b)"><path fill="url(#c)" d="M4.154 36.001h27.692c2.354 0 4.154-1.8 4.154-4.154v-18c0-2.354-1.8-4.154-4.154-4.154H4.154C1.8 9.693 0 11.493 0 13.847v18c0 2.354 1.8 4.154 4.154 4.154z"/><path fill="#00DA73" d="M20.77 9.693h-5.54v26.308h5.54V9.693z"/><path fill="#00DA73" d="M26.446 3.186 18 8.863 9.554 3.186c-1.8-1.108-4.015.138-4.015 2.077v8.86c0 1.939 2.077 3.186 3.738 2.216L18 11.632l8.723 4.846c1.662.97 3.74-.277 3.74-2.216v-9c0-1.938-2.217-3.184-4.017-2.076z"/><path fill="#00AC63" d="M9.415 16.478 18 11.632H8.17c-1.385 0-2.63 1.107-2.63 2.63 0 1.939 2.076 3.185 3.876 2.216zm17.17 0L18 11.632l9.83-.001c1.385 0 2.632 1.107 2.632 2.63 0 1.939-2.077 3.186-3.877 2.217z"/></g></g><defs><linearGradient id="c" x1="18" x2="18" y1="9.693" y2="36.001" gradientUnits="userSpaceOnUse"><stop stop-color="#3FFFA0"/><stop offset="1" stop-color="#28FF94"/></linearGradient><clipPath id="a"><path fill="#fff" d="M0 0h36v36H0z"/></clipPath></defs></svg>