<svg xmlns="http://www.w3.org/2000/svg" width="36" height="36" fill="none"><g clip-path="url(#a)"><mask id="b" width="36" height="36" x="0" y="0" maskUnits="userSpaceOnUse" style="mask-type:luminance"><path fill="#fff" d="M0 0h36v36H0V0z"/></mask><g mask="url(#b)"><path fill="#00AC63" d="M15.092 0A22 22 0 0 0 .024 21.923C.46 31.308 7.777 36 15.092 36c7.315 0 14.637-4.692 15.072-14.077A22 22 0 0 0 15.094 0h-.002z"/><path fill="url(#c)" d="M29.33 32.275c.236-.216.467-.437.691-.664A20.418 20.418 0 0 0 33.825 8L10.203 31.62c4.802 4.803 12.682 6.525 19.126.654v.001z"/><path fill="url(#d)" d="M10.216 11.802c-.23.226-.45.457-.665.691-5.872 6.443-4.154 14.324.652 19.125L33.825 8.002a20.415 20.415 0 0 0-23.61 3.8h.001z"/><path fill="url(#e)" d="M29.33 32.275c.236-.216.467-.437.691-.664A20.418 20.418 0 0 0 33.825 8L10.203 31.62c4.802 4.803 12.682 6.525 19.126.654v.001z"/></g></g><defs><linearGradient id="c" x1="12.109" x2="31.918" y1="9.906" y2="29.716" gradientUnits="userSpaceOnUse"><stop stop-color="#38FF9C"/><stop offset="1" stop-color="#28FF94"/></linearGradient><linearGradient id="d" x1="12.109" x2="31.918" y1="9.907" y2="29.716" gradientUnits="userSpaceOnUse"><stop stop-color="#38FF9C"/><stop offset="1" stop-color="#28FF94"/></linearGradient><linearGradient id="e" x1="10.203" x2="36" y1="22" y2="22" gradientUnits="userSpaceOnUse"><stop stop-color="#10C783"/><stop offset="1" stop-color="#10D979"/></linearGradient><clipPath id="a"><path fill="#fff" d="M0 0h36v36H0z"/></clipPath></defs></svg>