<svg xmlns="http://www.w3.org/2000/svg" width="36" height="36" fill="none"><g clip-path="url(#a)"><mask id="b" width="36" height="36" x="0" y="0" maskUnits="userSpaceOnUse" style="mask-type:luminance"><path fill="#fff" d="M0 0h36v36H0V0z"/></mask><g mask="url(#b)"><mask id="c" width="36" height="36" x="0" y="0" maskUnits="userSpaceOnUse" style="mask-type:luminance"><path fill="#fff" d="M0 0h36v36H0V0z"/></mask><g mask="url(#c)"><path fill="url(#d)" d="M19.247 1.386c-5.677 0-10.938 2.907-13.984 7.892l-5.4-1.94 5.953 10.386H7.34c0-6.646 5.262-11.908 11.908-12.046 6.646 0 11.908 5.26 12.046 11.908.14 6.646-5.26 11.907-11.907 12.046-3.739 0-7.2-1.662-9.554-4.708l-3.6 2.77c5.538 7.2 15.784 8.445 22.984 3.045 7.2-5.4 8.446-15.784 3.046-22.984-3.046-4.016-7.892-6.37-13.015-6.37z"/><path fill="url(#e)" d="M20.631 17.723v-7.06c0-.832-.69-1.386-1.384-1.386-.83 0-1.384.692-1.384 1.385v9.83h7.061c.83 0 1.385-.692 1.385-1.384 0-.83-.693-1.385-1.385-1.385h-4.292z"/></g></g></g><defs><linearGradient id="d" x1="17.791" x2="17.791" y1="3.278" y2="31.407" gradientUnits="userSpaceOnUse"><stop stop-color="#F4C732"/><stop offset="1" stop-color="#F1B200"/></linearGradient><linearGradient id="e" x1="17.795" x2="26.241" y1="14.894" y2="14.894" gradientUnits="userSpaceOnUse"><stop stop-color="#F4C732"/><stop offset="1" stop-color="#F1B200"/></linearGradient><clipPath id="a"><path fill="#fff" d="M0 0h36v36H0z"/></clipPath></defs></svg>