<svg xmlns="http://www.w3.org/2000/svg" width="36" height="36" fill="none"><g clip-path="url(#a)"><mask id="b" width="36" height="36" x="0" y="0" maskUnits="userSpaceOnUse" style="mask-type:luminance"><path fill="#fff" d="M0 0h36v36H0V0z"/></mask><g mask="url(#b)"><path fill="#662BAE" d="M18.303 4.673A3 3 0 0 1 22.15 2.88l12.216 4.446a3 3 0 0 1 1.793 3.845L27.95 33.724a3 3 0 0 1-3.845 1.793l-12.216-4.446a3 3 0 0 1-1.793-3.846l8.208-22.552z"/><path fill="#8D48FF" d="M10.842 3.314A3 3 0 0 1 14.317.881l12.804 2.257a3 3 0 0 1 2.433 3.476L25.387 30.25a3 3 0 0 1-3.476 2.434L9.108 30.426a3 3 0 0 1-2.434-3.475l4.168-23.637z"/><path fill="#C4C4C4" d="M2.664 3.72a3 3 0 0 1 3-3h13a3 3 0 0 1 3 3v24a3 3 0 0 1-3 3h-13a3 3 0 0 1-3-3v-24z"/><path fill="url(#c)" d="M2.664 3.72a3 3 0 0 1 3-3h13a3 3 0 0 1 3 3v24a3 3 0 0 1-3 3h-13a3 3 0 0 1-3-3v-24z"/><path fill="#000" d="M17.4 14.79a1.4 1.4 0 0 1 0 2.423l-7.8 4.504a1.4 1.4 0 0 1-2.1-1.213v-9.006a1.4 1.4 0 0 1 2.1-1.213l7.8 4.504z"/><path fill="#000" d="M17.4 14.79a1.4 1.4 0 0 1 0 2.423l-7.8 4.504a1.4 1.4 0 0 1-2.1-1.213v-9.006a1.4 1.4 0 0 1 2.1-1.213l7.8 4.504z"/></g></g><defs><linearGradient id="c" x1="19.164" x2="5.164" y1="3.221" y2="28.221" gradientUnits="userSpaceOnUse"><stop stop-color="#DCC1FF"/><stop offset=".668" stop-color="#C08EFF"/></linearGradient><clipPath id="a"><path fill="#fff" d="M0 0h36v36H0z"/></clipPath></defs></svg>